{
	"asset":{
		"generator":"Khronos glTF Blender I/O v4.2.57",
		"version":"2.0"
	},
	"extensionsUsed":[
		"KHR_lights_punctual",
		"OMI_physics_body",
		"OMI_physics_shape"
	],
	"extensionsRequired":[
		"KHR_lights_punctual"
	],
	"extensions":{
		"KHR_lights_punctual":{
			"lights":[
				{
					"color":[
						1,
						0.054294876754283905,
						0
					],
					"intensity":0.7992854862629745,
					"type":"point",
					"name":"Point"
				},
				{
					"color":[
						1,
						0.7852964401245117,
						0
					],
					"intensity":0.7992854862629745,
					"spot":{
						"innerConeAngle":0.36930977240070817,
						"outerConeAngle":0.50290447473526
					},
					"type":"spot",
					"range":44.77000045776367,
					"name":"Spot"
				},
				{
					"color":[
						0.06293024122714996,
						0.08333682268857956,
						1
					],
					"intensity":1.0044117647058823,
					"type":"directional",
					"name":"Spot.001"
				}
			]
		},
		"OMI_physics_shape":{
			"shapes":[
				{
					"type":"convex",
					"mesh":0
				},
				{
					"type":"convex",
					"mesh":1
				},
				{
					"type":"convex",
					"mesh":2
				},
				{
					"type":"convex",
					"mesh":3
				},
				{
					"type":"convex",
					"mesh":4
				},
				{
					"type":"convex",
					"mesh":5
				}
			]
		}
	},
	"scene":0,
	"scenes":[
		{
			"name":"Scene",
			"nodes":[
				13
			]
		}
	],
	"nodes":[
		{
			"extensions":{
				"KHR_lights_punctual":{
					"light":0
				}
			},
			"name":"Point",
			"rotation":[
				-0.7071068286895752,
				0,
				0,
				0.7071068286895752
			],
			"translation":[
				0,
				8.447986602783203,
				0
			]
		},
		{
			"extensions":{
				"KHR_lights_punctual":{
					"light":1
				}
			},
			"name":"Spot",
			"rotation":[
				-0.5665251016616821,
				-0.02177565172314644,
				0.016455013304948807,
				0.8235924243927002
			],
			"translation":[
				18.752975463867188,
				17.67134666442871,
				2.36594295501709
			]
		},
		{
			"extensions":{
				"KHR_lights_punctual":{
					"light":2
				}
			},
			"name":"Sun",
			"rotation":[
				-0.5665251016616821,
				-0.02177565172314644,
				0.016455013304948807,
				0.8235924243927002
			],
			"translation":[
				-2.6255741119384766,
				22.591978073120117,
				1.8311387300491333
			]
		},
		{
			"mesh":0,
			"name":"Cube.002"
		},
		{
			"mesh":1,
			"name":"Cube.004"
		},
		{
			"children":[
				14,
				15
			],
			"name":"map 2"
		},
		{
			"children":[
				5
			],
			"name":"map 1"
		},
		{
			"mesh":2,
			"name":"Cube.001"
		},
		{
			"mesh":3,
			"name":"Icosphere"
		},
		{
			"mesh":4,
			"name":"Cube"
		},
		{
			"mesh":5,
			"name":"Cylinder"
		},
		{
			"children":[
				18,
				19
			],
			"name":"deco"
		},
		{
			"children":[
				0,
				1,
				2,
				6,
				11
			],
			"name":"main"
		},
		{
			"children":[
				12
			],
			"name":"Scene Collection"
		},
		{
			"children":[
				3
			],
			"extensions":{
				"OMI_physics_body":{
					"type":"static",
					"collider":{
						"shape":0
					}
				}
			},
			"mesh":0,
			"name":"Cube.002_body",
			"rotation":[
				-0.058556634932756424,
				0.20166350901126862,
				-0.7610310912132263,
				0.6137872934341431
			],
			"translation":[
				-5.698052406311035,
				11.853850364685059,
				10.02958869934082
			]
		},
		{
			"children":[
				4
			],
			"extensions":{
				"OMI_physics_body":{
					"type":"static",
					"collider":{
						"shape":1
					}
				}
			},
			"mesh":1,
			"name":"Cube.004_body",
			"translation":[
				17.596271514892578,
				7.581674098968506,
				-1.1118316650390625
			]
		},
		{
			"children":[
				7
			],
			"extensions":{
				"OMI_physics_body":{
					"type":"static",
					"collider":{
						"shape":2
					}
				}
			},
			"mesh":2,
			"name":"Cube.001_body",
			"translation":[
				10.478643417358398,
				8.847053527832031,
				6.140887260437012
			]
		},
		{
			"children":[
				8
			],
			"extensions":{
				"OMI_physics_body":{
					"type":"static",
					"collider":{
						"shape":3
					}
				}
			},
			"mesh":3,
			"name":"Icosphere_body",
			"translation":[
				0.8372991681098938,
				6.859004020690918,
				-12.726374626159668
			]
		},
		{
			"children":[
				16,
				17,
				9
			],
			"extensions":{
				"OMI_physics_body":{
					"type":"static",
					"collider":{
						"shape":4
					}
				}
			},
			"mesh":4,
			"name":"Cube_body",
			"translation":[
				0,
				1,
				0
			]
		},
		{
			"children":[
				10
			],
			"extensions":{
				"OMI_physics_body":{
					"type":"static",
					"collider":{
						"shape":5
					}
				}
			},
			"mesh":5,
			"name":"Cylinder_body",
			"translation":[
				3.643315315246582,
				27.860044479370117,
				9.712202072143555
			]
		}
	],
	"materials":[
		{
			"doubleSided":true,
			"name":"Material",
			"pbrMetallicRoughness":{
				"baseColorTexture":{
					"index":0
				},
				"metallicFactor":0,
				"roughnessFactor":0.5
			}
		}
	],
	"meshes":[
		{
			"name":"Cube.003",
			"primitives":[
				{
					"attributes":{
						"POSITION":0,
						"NORMAL":1,
						"TEXCOORD_0":2
					},
					"indices":3
				}
			]
		},
		{
			"name":"Cube.005",
			"primitives":[
				{
					"attributes":{
						"POSITION":4,
						"NORMAL":5,
						"TEXCOORD_0":6
					},
					"indices":7
				}
			]
		},
		{
			"name":"Cube.002",
			"primitives":[
				{
					"attributes":{
						"POSITION":8,
						"NORMAL":9,
						"TEXCOORD_0":10
					},
					"indices":11
				}
			]
		},
		{
			"name":"Icosphere",
			"primitives":[
				{
					"attributes":{
						"POSITION":12,
						"NORMAL":13,
						"TEXCOORD_0":14
					},
					"indices":15
				}
			]
		},
		{
			"name":"Cube.001",
			"primitives":[
				{
					"attributes":{
						"POSITION":16,
						"NORMAL":17,
						"TEXCOORD_0":18
					},
					"indices":19,
					"material":0
				}
			]
		},
		{
			"name":"Cylinder",
			"primitives":[
				{
					"attributes":{
						"POSITION":20,
						"NORMAL":21,
						"TEXCOORD_0":22
					},
					"indices":23
				}
			]
		}
	],
	"textures":[
		{
			"sampler":0,
			"source":0
		}
	],
	"images":[
		{
			"mimeType":"image/png",
			"name":"Untitled",
			"uri":"Untitled.png"
		}
	],
	"accessors":[
		{
			"bufferView":0,
			"componentType":5126,
			"count":40,
			"max":[
				2.863584041595459,
				3.5703060626983643,
				2.6937389373779297
			],
			"min":[
				-3.548952102661133,
				-4.838218688964844,
				-2.6690335273742676
			],
			"type":"VEC3"
		},
		{
			"bufferView":1,
			"componentType":5126,
			"count":40,
			"type":"VEC3"
		},
		{
			"bufferView":2,
			"componentType":5126,
			"count":40,
			"type":"VEC2"
		},
		{
			"bufferView":3,
			"componentType":5123,
			"count":60,
			"type":"SCALAR"
		},
		{
			"bufferView":4,
			"componentType":5126,
			"count":72,
			"max":[
				1.6740436553955078,
				4.867647647857666,
				1.6740444898605347
			],
			"min":[
				-1.6740446090698242,
				-4.666476249694824,
				-1.6740446090698242
			],
			"type":"VEC3"
		},
		{
			"bufferView":5,
			"componentType":5126,
			"count":72,
			"type":"VEC3"
		},
		{
			"bufferView":6,
			"componentType":5126,
			"count":72,
			"type":"VEC2"
		},
		{
			"bufferView":7,
			"componentType":5123,
			"count":108,
			"type":"SCALAR"
		},
		{
			"bufferView":8,
			"componentType":5126,
			"count":24,
			"max":[
				2.661923408508301,
				2.5717830657958984,
				2.426419258117676
			],
			"min":[
				-2.661923408508301,
				-2.5717830657958984,
				-2.4264190196990967
			],
			"type":"VEC3"
		},
		{
			"bufferView":9,
			"componentType":5126,
			"count":24,
			"type":"VEC3"
		},
		{
			"bufferView":10,
			"componentType":5126,
			"count":24,
			"type":"VEC2"
		},
		{
			"bufferView":11,
			"componentType":5123,
			"count":36,
			"type":"SCALAR"
		},
		{
			"bufferView":12,
			"componentType":5126,
			"count":240,
			"max":[
				0.9510578513145447,
				1,
				1
			],
			"min":[
				-0.9510579109191895,
				-1,
				-1
			],
			"type":"VEC3"
		},
		{
			"bufferView":13,
			"componentType":5126,
			"count":240,
			"type":"VEC3"
		},
		{
			"bufferView":14,
			"componentType":5126,
			"count":240,
			"type":"VEC2"
		},
		{
			"bufferView":15,
			"componentType":5123,
			"count":240,
			"type":"SCALAR"
		},
		{
			"bufferView":16,
			"componentType":5126,
			"count":24,
			"max":[
				1,
				1,
				1
			],
			"min":[
				-1,
				-1,
				-1
			],
			"type":"VEC3"
		},
		{
			"bufferView":17,
			"componentType":5126,
			"count":24,
			"type":"VEC3"
		},
		{
			"bufferView":18,
			"componentType":5126,
			"count":24,
			"type":"VEC2"
		},
		{
			"bufferView":19,
			"componentType":5123,
			"count":36,
			"type":"SCALAR"
		},
		{
			"bufferView":20,
			"componentType":5126,
			"count":192,
			"max":[
				1,
				1,
				1
			],
			"min":[
				-1,
				-1,
				-1
			],
			"type":"VEC3"
		},
		{
			"bufferView":21,
			"componentType":5126,
			"count":192,
			"type":"VEC3"
		},
		{
			"bufferView":22,
			"componentType":5126,
			"count":192,
			"type":"VEC2"
		},
		{
			"bufferView":23,
			"componentType":5123,
			"count":372,
			"type":"SCALAR"
		}
	],
	"bufferViews":[
		{
			"buffer":0,
			"byteLength":480,
			"byteOffset":0,
			"target":34962
		},
		{
			"buffer":0,
			"byteLength":480,
			"byteOffset":480,
			"target":34962
		},
		{
			"buffer":0,
			"byteLength":320,
			"byteOffset":960,
			"target":34962
		},
		{
			"buffer":0,
			"byteLength":120,
			"byteOffset":1280,
			"target":34963
		},
		{
			"buffer":0,
			"byteLength":864,
			"byteOffset":1400,
			"target":34962
		},
		{
			"buffer":0,
			"byteLength":864,
			"byteOffset":2264,
			"target":34962
		},
		{
			"buffer":0,
			"byteLength":576,
			"byteOffset":3128,
			"target":34962
		},
		{
			"buffer":0,
			"byteLength":216,
			"byteOffset":3704,
			"target":34963
		},
		{
			"buffer":0,
			"byteLength":288,
			"byteOffset":3920,
			"target":34962
		},
		{
			"buffer":0,
			"byteLength":288,
			"byteOffset":4208,
			"target":34962
		},
		{
			"buffer":0,
			"byteLength":192,
			"byteOffset":4496,
			"target":34962
		},
		{
			"buffer":0,
			"byteLength":72,
			"byteOffset":4688,
			"target":34963
		},
		{
			"buffer":0,
			"byteLength":2880,
			"byteOffset":4760,
			"target":34962
		},
		{
			"buffer":0,
			"byteLength":2880,
			"byteOffset":7640,
			"target":34962
		},
		{
			"buffer":0,
			"byteLength":1920,
			"byteOffset":10520,
			"target":34962
		},
		{
			"buffer":0,
			"byteLength":480,
			"byteOffset":12440,
			"target":34963
		},
		{
			"buffer":0,
			"byteLength":288,
			"byteOffset":12920,
			"target":34962
		},
		{
			"buffer":0,
			"byteLength":288,
			"byteOffset":13208,
			"target":34962
		},
		{
			"buffer":0,
			"byteLength":192,
			"byteOffset":13496,
			"target":34962
		},
		{
			"buffer":0,
			"byteLength":72,
			"byteOffset":13688,
			"target":34963
		},
		{
			"buffer":0,
			"byteLength":2304,
			"byteOffset":13760,
			"target":34962
		},
		{
			"buffer":0,
			"byteLength":2304,
			"byteOffset":16064,
			"target":34962
		},
		{
			"buffer":0,
			"byteLength":1536,
			"byteOffset":18368,
			"target":34962
		},
		{
			"buffer":0,
			"byteLength":744,
			"byteOffset":19904,
			"target":34963
		}
	],
	"samplers":[
		{
			"magFilter":9729,
			"minFilter":9987
		}
	],
	"buffers":[
		{
			"byteLength":20648,
			"uri":"collisions_test.bin"
		}
	]
}
